Punishment Park (Peter Watkins, 1971)
Peter Watkins

www.imdb.com/title/tt0067633/



A key film in the unimpeachable cry-in-the-wilderness corpus of Peter WatkinsΓΓé¼ΓÇ¥a major filmography long marginalized and only now being prepped and released on any form of videoΓΓé¼ΓÇ¥ Punishment Park (1971) is an act of howling political righteousness, a dystopian critique intended for the peace-movement years but possibly even more relevant today. The premise is so simple it leaves singe marks: Watkins begins with the very real McCarran Act (just as he had based The War Game on Britain's own nuclear-warfare cost analysis and contingency plans), which grants Ashcroftian summary-judgment powers to the president in times of potential "insurrection." The Nixon-'Nam years were those times, and so the film follows two groups of arrested protesters as they're led to the Western desert, interrogated by a tribunal and then sent running, with national guardsmen and riot police following on the hunt.

Complete name                            : Punishment.Park.1971.720p.BluRay.x264-SHUNPO.mkv
Format                                   : Matroska
Format version                           : Version 2
File size                                : 3.28 GiB
Duration                                 : 1h 31mn
Overall bit rate                         : 5 133 Kbps
Encoded date                             : UTC 2012-01-21 15:40:11
Writing application                      : mkvmerge v4.6.0 ('Still Crazy After All These Years') built on Mar 10 2011 02:50:32
Writing library                          : libebml v1.2.0 + libmatroska v1.1.0

Video
ID                                       : 1
Format                                   : AVC
Format/Info                              : Advanced Video Codec
Format profile                           : High@L4.1
Format settings, CABAC                   : Yes
Format settings, ReFrames                : 5 frames
Codec ID                                 : V_MPEG4/ISO/AVC
Duration                                 : 1h 31mn
Bit rate                                 : 4 494 Kbps
Width                                    : 960 pixels
Height                                   : 720 pixels
Display aspect ratio                     : 4:3
Frame rate                               : 23.976 fps
Color space                              : YUV
Chroma subsampling                       : 4:2:0
Bit depth                                : 8 bits
Scan type                                : Progressive
Bits/(Pixel*Frame)                       : 0.271
Stream size                              : 2.80 GiB (86%)
Writing library                          : x264 core 120 r2145 748fe16
Language                                 : English
Default                                  : Yes
Forced                                   : No

Audio
ID                                       : 2
Format                                   : AC-3
Format/Info                              : Audio Coding 3
Mode extension                           : CM (complete main)
Codec ID                                 : A_AC3
Duration                                 : 1h 31mn
Bit rate mode                            : Constant
Bit rate                                 : 640 Kbps
Channel(s)                               : 2 channels
Channel positions                        : Front: L R
Sampling rate                            : 48.0 KHz
Bit depth                                : 16 bits
Compression mode                         : Lossy
Stream size                              : 418 MiB (12%)
Language                                 : English
Default                                  : Yes
Forced                                   : No